<svg width="21" height="20" viewBox="0 0 21 20" fill="none" xmlns="http://www.w3.org/2000/svg">
<path d="M20.0371 9.37487V10.6251C20.0068 10.8693 19.9818 11.114 19.9463 11.3577C19.6306 13.5372 18.7102 15.4234 17.1642 16.995C15.6645 18.5197 13.856 19.4756 11.7438 19.8466C11.3796 19.9108 11.0113 19.9499 10.6444 20H9.39215C9.26379 19.9838 9.13595 19.9661 9.00759 19.9525C7.02585 19.7402 5.24969 19.019 3.7099 17.7568C1.7892 16.1831 0.594314 14.1706 0.153927 11.7229C0.0887036 11.3592 0.0506133 10.9914 0 10.6251C0 10.2082 0 9.79178 0 9.37487C0.0427865 9.04719 0.0735718 8.7169 0.129925 8.3913C0.5844 5.78394 1.85338 3.65349 3.95983 2.05056C6.15238 0.382411 8.64234 -0.260952 11.3728 0.0949065C13.3629 0.354234 15.1182 1.16561 16.6225 2.49408C18.3716 4.03909 19.4631 5.96082 19.8811 8.25721C19.9484 8.62715 19.986 9.00232 20.0371 9.37487ZM18.7848 10.0094C18.7926 5.19536 14.8704 1.26736 10.0381 1.25014C5.2116 1.23292 1.26168 5.16249 1.25281 9.99058C1.24394 14.8051 5.1662 18.7326 9.99951 18.7498C14.8266 18.7665 18.7765 14.8369 18.7843 10.0099L18.7848 10.0094Z" fill="white"/>
<path d="M7.78109 9.3749H8.04355C9.91467 9.3749 11.7858 9.3749 13.6569 9.3749C13.7352 9.3749 13.8145 9.37177 13.8907 9.38585C14.2058 9.44534 14.4255 9.73649 14.3999 10.0517C14.3749 10.3595 14.1224 10.6063 13.8067 10.622C13.6439 10.6298 13.4806 10.6241 13.3178 10.6241C11.5578 10.6241 9.79727 10.6241 8.03728 10.6241H7.78735C7.85727 10.7002 7.9011 10.7519 7.9491 10.7999C8.57107 11.4213 9.19669 12.0397 9.81449 12.6648C10.1776 13.0316 10.0269 13.6087 9.54211 13.7292C9.32349 13.7835 9.1226 13.7334 8.96398 13.5758C7.91049 12.5291 6.85805 11.4813 5.81134 10.4279C5.5661 10.1816 5.56871 9.81424 5.81552 9.56587C6.85805 8.5176 7.90475 7.47299 8.95458 6.43202C9.20922 6.18 9.59012 6.18991 9.83327 6.43202C10.0822 6.68039 10.0842 7.06077 9.82388 7.32375C9.20504 7.94833 8.58046 8.56717 7.95849 9.18862C7.90892 9.23767 7.86196 9.28932 7.78109 9.37385V9.3749Z" fill="white"/>
</svg>
