<svg width="141" height="30" viewBox="0 0 141 30" fill="none" xmlns="http://www.w3.org/2000/svg">
<path d="M133.233 0L133.881 5.45062C133.97 6.1697 134.545 6.73058 135.282 6.81687L140.87 7.44966L135.282 8.08245C134.545 8.16874 133.97 8.72962 133.881 9.4487L133.233 14.8993L132.584 9.4487C132.496 8.72962 131.921 8.16874 131.183 8.08245L125.596 7.44966L131.183 6.81687C131.921 6.73058 132.496 6.1697 132.584 5.45062L133.233 0ZM10.4528 13.7057C9.80411 13.3749 9.11119 13.1592 8.40352 13.0585C7.69586 12.9578 7.06191 12.9147 6.51642 12.9147H0V13.4036H0.501263C1.25316 13.4036 1.73968 13.6337 1.94608 14.0796C2.15248 14.5254 2.25568 15.1151 2.25568 15.8485V29.7699H4.51136V22.4497H7.26831C7.5042 22.4497 7.79906 22.4353 8.15289 22.3921C8.50672 22.349 8.89004 22.2771 9.30285 22.1764C9.71565 22.0757 10.1285 21.9175 10.5265 21.7018C10.9393 21.4861 11.3079 21.2128 11.647 20.8677C11.9861 20.5225 12.2515 20.1055 12.4579 19.6021C12.6643 19.0988 12.7675 18.5091 12.7675 17.8044C12.7675 16.7114 12.5463 15.8341 12.0893 15.187C11.647 14.5398 11.1015 14.0508 10.4528 13.7057ZM9.86308 19.5302C9.58296 20.0336 9.24387 20.4362 8.84581 20.7383C8.44775 21.0546 8.0202 21.2704 7.57791 21.3998C7.13562 21.5292 6.73756 21.6011 6.38373 21.6011C6.07412 21.6011 5.73503 21.5724 5.39595 21.5292C5.05686 21.4861 4.762 21.4286 4.51136 21.3567V14.0221C4.762 13.9501 5.05686 13.8926 5.39595 13.8495C5.73503 13.8063 6.07412 13.7776 6.38373 13.7776C6.73756 13.7776 7.13562 13.8495 7.57791 13.9789C8.0202 14.1083 8.44775 14.3241 8.84581 14.6405C9.24387 14.9569 9.58296 15.3595 9.86308 15.8485C10.1432 16.3519 10.2759 16.9559 10.2759 17.6894C10.2759 18.4228 10.1285 19.0268 9.86308 19.5302ZM25.7266 23.3413C25.7266 24.3337 25.6529 25.1965 25.4907 25.9156C25.3285 26.6347 25.0779 27.2387 24.7093 27.7133C24.3407 28.1879 23.8542 28.5331 23.2497 28.7632C22.6453 28.9933 21.9081 29.1083 21.0383 29.1083C20.2717 29.1083 19.623 28.9933 19.107 28.7632C18.591 28.5331 18.1781 28.1879 17.8538 27.7565C17.5295 27.325 17.2936 26.7929 17.1609 26.1601C17.0282 25.5417 16.9545 24.8226 16.9545 24.0316V17.6031C16.9545 17.0422 16.925 16.5964 16.866 16.2368C16.807 15.8773 16.6891 15.604 16.5269 15.4027C16.3648 15.2013 16.1436 15.0719 15.8782 15C15.6129 14.9281 15.2738 14.8993 14.8757 14.8993H12.7969V15.3452H13.254C13.9469 15.3452 14.3892 15.5465 14.5808 15.9636C14.7725 16.3806 14.8757 16.9271 14.8757 17.6031V23.3557C14.8757 24.4487 14.9789 25.4123 15.1706 26.2464C15.3622 27.0805 15.6866 27.7709 16.1436 28.3317C16.6006 28.8926 17.2051 29.3097 17.957 29.5829C18.7089 29.8562 19.6524 30 20.7729 30C21.9671 30 22.9401 29.8562 23.692 29.5829C24.4439 29.3097 25.0484 28.8926 25.4907 28.3317C25.933 27.7709 26.2278 27.0805 26.4048 26.2464C26.5669 25.4123 26.6554 24.4487 26.6554 23.3557V14.8993H25.7266V23.3413ZM39.3639 28.6913C39.1132 28.4899 38.8626 28.2311 38.612 27.9147C38.3613 27.5983 38.0812 27.1956 37.7864 26.721L35.3685 22.7804C35.7666 22.6941 36.1941 22.5647 36.6364 22.3921C37.0787 22.2339 37.4768 22.0038 37.8453 21.7018C38.2139 21.4142 38.5088 21.0403 38.7299 20.5801C38.9658 20.1342 39.069 19.5733 39.069 18.9262C39.069 18.0201 38.8626 17.3011 38.4498 16.7689C38.037 16.2368 37.521 15.8197 36.9313 15.5465C36.3415 15.2732 35.6929 15.0719 35.0294 15C34.366 14.9281 33.791 14.8706 33.2897 14.8706H27.2746V15.3164H27.7316C28.4245 15.3164 28.8668 15.5177 29.0585 15.9348C29.2502 16.3519 29.3534 16.8984 29.3534 17.5743V29.7699H31.4321V22.8955H33.0539L35.3685 26.721C35.7371 27.3394 36.0909 27.8571 36.4153 28.2742C36.7396 28.6913 37.0787 29.0364 37.403 29.2953C37.7274 29.5542 38.0665 29.7267 38.4056 29.8418C38.7447 29.9425 39.128 30 39.526 30C39.8209 30 40.0863 29.9712 40.3517 29.9281C40.6023 29.8849 40.7939 29.8274 40.9119 29.7699V29.3241C40.617 29.2953 40.3517 29.2378 40.101 29.1515C39.8651 29.0508 39.6145 28.907 39.3639 28.6913ZM34.2628 21.9175C33.85 22.0326 33.4961 22.1045 33.1571 22.1045C32.8622 22.1045 32.5673 22.0757 32.243 22.0326C31.9334 21.9895 31.6533 21.9319 31.4174 21.8744V15.8917C31.6533 15.8341 31.9186 15.7766 32.243 15.7335C32.5526 15.6903 32.8622 15.6616 33.1571 15.6616C33.4814 15.6616 33.85 15.7191 34.2628 15.8341C34.6756 15.9492 35.0589 16.1361 35.4275 16.395C35.7961 16.6539 36.1057 16.9847 36.3563 17.4161C36.6069 17.8476 36.7396 18.3365 36.7396 18.9262C36.7396 19.5158 36.6069 19.976 36.3563 20.3787C36.1057 20.7814 35.7961 21.0978 35.4275 21.3423C35.0589 21.6155 34.6756 21.8025 34.2628 21.9175ZM127.232 29.3241C126.539 29.3241 126.097 29.1227 125.905 28.7057C125.714 28.2886 125.611 27.7421 125.611 27.0662V14.8849H123.532V21.6443H116.603V18.3797V16.6826C116.603 16.4525 116.573 16.2368 116.529 16.0211C116.47 15.8054 116.381 15.6184 116.234 15.4458C116.087 15.2876 115.895 15.1438 115.63 15.0431C115.379 14.9425 115.055 14.8849 114.642 14.8849H101.963C101.565 14.8849 101.24 14.9425 100.975 15.0431C100.724 15.1438 100.518 15.2876 100.37 15.4458C100.223 15.6184 100.12 15.8054 100.076 16.0211C100.017 16.2368 100.002 16.4669 100.002 16.6826V18.3797V19.8178H100.459V18.3797C100.459 17.4736 100.71 16.8265 101.211 16.4094C101.712 15.9923 102.42 15.791 103.349 15.791H105.427V29.7699H107.506V15.791H111.619C112.548 15.791 113.256 15.9923 113.757 16.4094C114.258 16.8265 114.509 17.488 114.509 18.3797V29.7699H116.588V22.5503H123.517V27.0662C123.517 27.6414 123.547 28.1016 123.605 28.4468C123.664 28.7919 123.782 29.0652 123.945 29.2665C124.107 29.4679 124.328 29.6117 124.593 29.6692C124.859 29.7411 125.198 29.7699 125.596 29.7699H127.675V29.3241H127.232ZM91.8343 28.7344C91.6279 28.5475 91.451 28.3174 91.2888 28.0297C91.1266 27.7421 90.9497 27.3825 90.7728 26.9511L85.6864 14.8849H84.9935L78.5213 29.7699H79.5681L81.411 25.4842H87.8831L88.4581 26.9511C88.7088 27.5983 89.0036 28.116 89.3427 28.5043C89.6965 28.8926 90.0504 29.1946 90.4042 29.396C90.7728 29.5973 91.1266 29.7267 91.4657 29.7843C91.8195 29.8418 92.1144 29.8706 92.3798 29.8706C92.7336 29.8706 93.0432 29.8274 93.3086 29.7555V29.3097C92.9842 29.2809 92.7041 29.2234 92.483 29.1371C92.2471 29.0508 92.0407 28.907 91.8343 28.7344ZM81.7501 24.5781L84.6397 18.0345L87.4114 24.5781H81.7501ZM96.1982 17.5887C96.1982 17.0278 96.1687 16.582 96.1098 16.2224C96.0508 15.8629 95.9328 15.5896 95.7707 15.3883C95.6085 15.187 95.3874 15.0575 95.122 14.9856C94.8566 14.9137 94.5175 14.8849 94.1195 14.8849H92.0407V15.3308H92.4977C93.0137 15.3308 93.5002 15.4458 93.7804 15.8917C93.9573 16.1649 94.0162 16.4813 94.0605 16.7977C94.1489 17.5887 94.1195 18.3941 94.1195 19.185V29.7699H104.41V28.8639H96.1982V17.5887ZM46.3078 22.0757L41.708 28.8639V29.7699H49.684C50.141 29.7699 50.5243 29.6692 50.8045 29.4679C51.0846 29.2665 51.291 28.9933 51.4237 28.6481L51.9102 27.3682H51.3205C51.0403 27.8571 50.716 28.2598 50.3474 28.4899C49.743 28.8639 48.9026 28.8782 47.8558 28.8782H44.347C44.347 28.8782 48.6962 22.0901 48.6962 22.0757L43.9195 15.791H48.652C48.9321 15.791 49.2269 15.8054 49.5071 15.8485C49.7872 15.8917 50.082 15.9492 50.3327 16.0786C50.5096 16.1649 50.6718 16.2943 50.7602 16.4669C50.8339 16.5964 50.8634 16.7546 50.9076 16.884C51.0846 16.8696 51.2615 16.884 51.4384 16.884V16.6826C51.4384 16.4525 51.4089 16.2368 51.3647 16.0211C51.2762 15.6328 50.9961 15.3164 50.6423 15.1294C50.2884 14.9281 49.8756 14.8849 49.4776 14.8849H40.0715V15.3308H40.0863C40.676 15.3308 41.0888 15.4746 41.3099 15.7766L46.3078 22.0757ZM78.2117 16.884V16.6826C78.2117 16.4525 78.1822 16.2368 78.138 16.0211C78.0496 15.6328 77.7694 15.3164 77.4156 15.1294C77.0618 14.9281 76.649 14.8849 76.2509 14.8849H66.8449V15.3308H66.8596C67.4493 15.3308 67.8621 15.4746 68.0833 15.7766L73.0812 22.0614L68.4813 28.8495V29.7555H76.4573C76.9143 29.7555 77.2977 29.6548 77.5778 29.4535C77.8579 29.2522 78.0643 28.9789 78.197 28.6337L78.6835 27.3538H78.0938C77.8137 27.8428 77.4893 28.2454 77.1207 28.4755C76.5163 28.8495 75.6759 28.8639 74.6292 28.8639H71.1203C71.1203 28.8639 75.4695 22.0757 75.4695 22.0614L70.7075 15.7766H75.44C75.7349 15.7766 76.015 15.791 76.2951 15.8341C76.5752 15.8773 76.8701 15.9348 77.1207 16.0642C77.2977 16.1505 77.4598 16.28 77.5483 16.4525C77.622 16.582 77.6515 16.7402 77.6957 16.8696L78.2117 16.884ZM65.916 28.5762C65.7096 28.1304 65.6064 27.5407 65.6064 26.8073V12.8859H63.3508V20.9396H55.8318V15.8197C55.8318 15.2157 55.8023 14.7267 55.7286 14.3384C55.6696 13.9501 55.537 13.6481 55.36 13.4324C55.1831 13.2167 54.9472 13.0729 54.6524 12.9866C54.3575 12.9003 54.0037 12.8715 53.5614 12.8715H51.3057V13.3605H51.807C52.5589 13.3605 53.0454 13.5906 53.2518 14.0364C53.4582 14.4823 53.5614 15.0719 53.5614 15.8054V29.7267H55.8171V21.9032H63.336V26.7929C63.336 27.4113 63.3655 27.9147 63.4392 28.2886C63.5129 28.6625 63.6309 28.9645 63.8078 29.1802C63.9847 29.396 64.2206 29.5398 64.5155 29.6261C64.8103 29.7124 65.1789 29.7411 65.6064 29.7411H67.8621V29.2522H67.3609C66.609 29.2522 66.1225 29.022 65.916 28.5762Z" fill="white"/>
</svg>
