<svg width="394" height="128" viewBox="0 0 394 128" fill="none" xmlns="http://www.w3.org/2000/svg">
<path d="M264.436 0L266.106 14.3889C266.334 16.2872 267.815 17.7678 269.713 17.9956L284.102 19.6661L269.713 21.3366C267.815 21.5644 266.334 23.045 266.106 24.9433L264.436 39.3322L262.765 24.9433C262.537 23.045 261.057 21.5644 259.158 21.3366L244.77 19.6661L259.158 17.9956C261.057 17.7678 262.537 16.2872 262.765 14.3889L264.436 0Z" fill="white"/>
<path d="M6.09625 42.0677C6.09625 39.7647 5.78014 38.0713 5.14794 36.9875C4.51574 35.8586 3.25133 35.2941 1.35472 35.2941H0V33.9394H28.8556C32.6939 33.9394 34.6131 35.7457 34.6131 39.3583V44.4385H33.2584C33.2584 39.2454 30.4361 36.6488 24.7914 36.6488H12.1925V54.2602H30.4812V56.9697H12.1925V75.9358H24.0463C27.1622 75.9358 29.6007 75.3713 31.3618 74.2424C33.1229 73.1134 34.5228 71.1942 35.5614 68.4848L36.9162 68.8235L34.5454 75.2584C33.7326 77.5163 32.0392 78.6452 29.4652 78.6452H6.09625V42.0677Z" fill="white"/>
<path d="M54.246 79.3226C50.3173 79.3226 47.2918 77.7646 45.1694 74.6488C43.0921 71.5329 42.0535 67.5591 42.0535 62.7272C42.0535 57.8954 43.1373 53.9215 45.3048 50.8057C47.5176 47.6898 50.7237 46.1319 54.9234 46.1319C56.6394 46.1319 58.1521 46.3125 59.4617 46.6738C60.7712 47.035 62.0808 47.5318 63.3904 48.164V42.0677C63.3904 39.7647 63.0743 38.0713 62.4421 36.9875C61.8099 35.8586 60.5455 35.2941 58.6488 35.2941H57.2941V33.9394H63.3904C65.0612 33.9394 66.303 34.1652 67.1159 34.6168C67.9738 35.0232 68.5835 35.7909 68.9447 36.9198C69.306 38.0487 69.4866 39.7647 69.4866 42.0677V78.6452H66.0998L63.7291 75.5971H63.3904C62.3969 76.726 61.2228 77.6292 59.8681 78.3065C58.5585 78.9839 56.6845 79.3226 54.246 79.3226ZM56.2781 76.6131C58.1295 76.6131 59.5294 76.2744 60.4777 75.5971C61.426 74.9197 62.3969 73.9037 63.3904 72.549V50.8734C62.0357 50.2412 60.8616 49.7445 59.8681 49.3832C58.8746 49.022 57.9038 48.8413 56.9554 48.8413C54.0654 48.8413 51.9204 50.1057 50.5205 52.6346C49.1658 55.1634 48.4884 58.5276 48.4884 62.7272C48.4884 66.8817 49.1432 70.2459 50.4528 72.8199C51.7623 75.3487 53.7041 76.6131 56.2781 76.6131Z" fill="white"/>
<path d="M90.8515 79.3226C87.4647 79.3226 84.6876 78.4194 82.52 76.6131C80.3976 74.8068 79.3364 71.6458 79.3364 67.1301V54.9376C79.3364 52.6346 79.0203 50.9412 78.3881 49.8574C77.7559 48.7284 76.4915 48.164 74.5949 48.164H73.9175V46.8093H79.3364C81.0072 46.8093 82.249 47.035 83.0619 47.4866C83.9199 47.893 84.5295 48.6607 84.8908 49.7896C85.252 50.9186 85.4326 52.6346 85.4326 54.9376V67.1301C85.4326 70.2911 86.1326 72.6167 87.5325 74.1069C88.9775 75.5519 90.7612 76.2744 92.8836 76.2744C95.277 76.2744 97.5348 75.0778 99.6572 72.6844V46.8093H105.753V78.6452H102.367L99.9959 75.9358H99.6572C98.7089 76.8841 97.4671 77.6969 95.9317 78.3743C94.4415 79.0065 92.7481 79.3226 90.8515 79.3226Z" fill="white"/>
<path d="M134.62 79.9999C130.42 79.9999 126.717 78.9839 123.511 76.9518C120.35 74.9197 117.911 72.1651 116.195 68.688C114.479 65.1657 113.621 61.2596 113.621 56.9697C113.621 52.5442 114.547 48.4575 116.399 44.7094C118.295 40.9614 120.847 38.0036 124.053 35.836C127.304 33.6685 130.826 32.5847 134.62 32.5847C138.232 32.5847 141.393 33.104 144.103 34.1426C146.857 35.1361 148.889 36.4231 150.199 38.0036C150.967 38.9519 151.441 40.2163 151.621 41.7968C151.802 43.3321 151.892 45.4545 151.892 48.164H150.538C149.68 43.7837 148.099 40.555 145.796 38.4777C143.493 36.3553 140.445 35.2941 136.652 35.2941C131.775 35.2941 127.846 37.0101 124.866 40.4421C121.885 43.874 120.395 49.3832 120.395 56.9697C120.395 60.5371 120.96 63.8562 122.088 66.9269C123.263 69.9976 125.069 72.5038 127.507 74.4456C129.946 76.3422 132.994 77.2905 136.652 77.2905C139.948 77.2905 142.816 76.5002 145.254 74.9197C147.738 73.3392 149.951 70.9685 151.892 67.8074L153.247 68.8235C151.17 72.8876 148.596 75.7777 145.525 77.4937C142.5 79.1645 138.864 79.9999 134.62 79.9999Z" fill="white"/>
<path d="M168.152 79.3226C166.707 79.3226 165.239 79.029 163.749 78.442C162.259 77.8098 160.972 76.7938 159.888 75.3939C158.849 73.994 158.33 72.1425 158.33 69.8395C158.33 66.4076 159.91 63.9691 163.071 62.524C166.278 61.079 170.455 60.3565 175.603 60.3565H177.635C177.635 55.931 177.025 52.9055 175.806 51.2798C174.587 49.6542 172.825 48.8413 170.522 48.8413C168.49 48.8413 166.865 49.2703 165.645 50.1283C164.426 50.9863 163.568 52.4765 163.071 54.5989H160.023C160.023 53.0636 160.114 51.8669 160.294 51.0089C160.475 50.1057 160.949 49.2703 161.717 48.5027C162.53 47.6898 163.862 47.1028 165.713 46.7415C167.61 46.3351 169.664 46.1319 171.877 46.1319C175.535 46.1319 178.425 47.1254 180.547 49.1123C182.67 51.0541 183.731 54.8021 183.731 60.3565V78.6452H180.344L177.973 75.5971H177.635C176.822 76.6357 175.625 77.5163 174.045 78.2388C172.464 78.9613 170.5 79.3226 168.152 79.3226ZM171.2 76.2744C172.69 76.2744 173.932 75.9132 174.925 75.1907C175.919 74.4681 176.822 73.4747 177.635 72.2103V63.0659H175.603C172.261 63.0659 169.619 63.6981 167.677 64.9625C165.736 66.1818 164.765 67.8074 164.765 69.8395C164.765 71.9168 165.374 73.5198 166.594 74.6488C167.858 75.7326 169.393 76.2744 171.2 76.2744Z" fill="white"/>
<path d="M193.718 54.9376C193.718 52.6346 193.402 50.9412 192.77 49.8574C192.138 48.7284 190.873 48.164 188.977 48.164H188.299V46.8093H193.718C195.434 46.8093 196.721 47.0576 197.579 47.5544C198.482 48.0059 199.115 48.7736 199.476 49.8574H199.815C200.627 48.8188 201.711 47.9382 203.066 47.2157C204.466 46.4932 206.091 46.1319 207.943 46.1319C209.749 46.1319 211.104 46.4706 212.007 47.1479C212.775 47.735 213.565 48.751 214.378 50.1961L211.668 52.2281C211.172 51.5508 210.449 51.0541 209.501 50.7379C208.552 50.3767 207.469 50.1961 206.249 50.1961C204.895 50.1961 203.653 50.5122 202.524 51.1444C201.395 51.7314 200.492 52.5442 199.815 53.5829V78.6452H193.718V54.9376Z" fill="white"/>
<path d="M231.899 79.3226C228.828 79.3226 226.232 78.6 224.11 77.155C221.987 75.6648 220.384 73.6779 219.3 71.1942C218.217 68.6654 217.675 65.8431 217.675 62.7272C217.675 59.6565 218.217 56.8568 219.3 54.328C220.384 51.7991 221.942 49.8122 223.974 48.3672C226.051 46.877 228.467 46.1319 231.222 46.1319C235.783 46.1319 239.17 47.4189 241.382 49.9929C243.64 52.5217 244.769 56.202 244.769 61.0338L244.634 63.7433H224.11C224.11 67.5365 224.922 70.6298 226.548 73.0231C228.174 75.4165 230.409 76.6131 233.254 76.6131C235.376 76.6131 237.16 76.1615 238.605 75.2584C240.095 74.3553 241.473 73.0005 242.737 71.1942L244.092 72.2103C242.601 74.6939 240.863 76.5002 238.876 77.6292C236.889 78.7581 234.563 79.3226 231.899 79.3226ZM238.334 61.0338C238.334 57.06 237.747 54.0344 236.573 51.9572C235.399 49.88 233.615 48.8413 231.222 48.8413C229.867 48.8413 228.648 49.3832 227.564 50.467C226.48 51.5056 225.622 52.9507 224.99 54.8021C224.403 56.6536 224.11 58.7308 224.11 61.0338H238.334Z" fill="white"/>
<path d="M14.828 123H12.76L9.57 112.022L6.402 123H4.334L0.242 107.336H2.75L5.478 118.534L8.624 107.336H10.538L13.684 118.534L16.412 107.336H18.92L14.828 123ZM21.7152 118.072C21.7152 119.04 21.9572 119.803 22.4412 120.36C22.9252 120.917 23.6292 121.196 24.5532 121.196C25.1839 121.196 25.6899 121.108 26.0712 120.932C26.4672 120.741 26.8632 120.448 27.2592 120.052L28.6892 121.394C28.3959 121.687 28.1025 121.944 27.8092 122.164C27.5305 122.369 27.2225 122.545 26.8852 122.692C26.5625 122.839 26.2032 122.949 25.8072 123.022C25.4259 123.095 24.9932 123.132 24.5092 123.132C23.8052 123.132 23.1452 123.037 22.5292 122.846C21.9279 122.641 21.3999 122.318 20.9452 121.878C20.5052 121.423 20.1532 120.829 19.8892 120.096C19.6252 119.363 19.4932 118.468 19.4932 117.412C19.4932 115.579 19.9185 114.171 20.7692 113.188C21.6345 112.205 22.7859 111.714 24.2232 111.714C24.9712 111.714 25.6385 111.846 26.2252 112.11C26.8119 112.359 27.3032 112.726 27.6992 113.21C28.1099 113.679 28.4179 114.251 28.6232 114.926C28.8432 115.586 28.9532 116.319 28.9532 117.126V118.072H21.7152ZM26.7312 116.51C26.7019 116.173 26.6725 115.901 26.6432 115.696C26.6139 115.476 26.5405 115.241 26.4232 114.992C26.2325 114.567 25.9465 114.229 25.5652 113.98C25.1985 113.716 24.7512 113.584 24.2232 113.584C23.6805 113.584 23.2185 113.716 22.8372 113.98C22.4705 114.229 22.1919 114.567 22.0012 114.992C21.8839 115.241 21.8105 115.476 21.7812 115.696C21.7519 115.901 21.7299 116.173 21.7152 116.51H26.7312ZM34.9166 123C34.3886 123 33.9266 122.919 33.5306 122.758C33.1492 122.582 32.8339 122.355 32.5846 122.076C32.3352 121.797 32.1519 121.475 32.0346 121.108C31.9172 120.727 31.8586 120.331 31.8586 119.92V107.336H34.1026V119.788C34.1026 120.213 34.1906 120.536 34.3666 120.756C34.5426 120.976 34.8579 121.086 35.3126 121.086H36.3026V123H34.9166ZM46.6158 121.548C46.0878 122.105 45.5378 122.509 44.9658 122.758C44.3938 123.007 43.7191 123.132 42.9418 123.132C42.3111 123.132 41.6951 123.029 41.0938 122.824C40.5071 122.619 39.9791 122.289 39.5098 121.834C39.0551 121.379 38.6811 120.793 38.3878 120.074C38.1091 119.341 37.9698 118.453 37.9698 117.412C37.9698 116.371 38.1091 115.491 38.3878 114.772C38.6811 114.039 39.0551 113.452 39.5098 113.012C39.9791 112.557 40.5071 112.227 41.0938 112.022C41.6951 111.817 42.3111 111.714 42.9418 111.714C43.7191 111.714 44.3938 111.839 44.9658 112.088C45.5378 112.323 46.0878 112.719 46.6158 113.276L45.0758 114.772C44.7238 114.391 44.3864 114.119 44.0638 113.958C43.7558 113.797 43.3818 113.716 42.9418 113.716C42.0618 113.716 41.3724 114.046 40.8738 114.706C40.6244 115.014 40.4484 115.381 40.3458 115.806C40.2578 116.217 40.2138 116.752 40.2138 117.412C40.2138 118.072 40.2578 118.615 40.3458 119.04C40.4484 119.465 40.6244 119.832 40.8738 120.14C41.3724 120.8 42.0618 121.13 42.9418 121.13C43.3818 121.13 43.7558 121.049 44.0638 120.888C44.3864 120.727 44.7238 120.455 45.0758 120.074L46.6158 121.548ZM57.6752 117.412C57.6752 118.365 57.5872 119.201 57.4112 119.92C57.2352 120.624 56.8832 121.255 56.3552 121.812C55.9886 122.193 55.5266 122.509 54.9692 122.758C54.4266 123.007 53.7739 123.132 53.0112 123.132C52.2486 123.132 51.5959 123.007 51.0532 122.758C50.5106 122.509 50.0559 122.193 49.6892 121.812C49.1612 121.255 48.8092 120.624 48.6332 119.92C48.4572 119.201 48.3692 118.365 48.3692 117.412C48.3692 116.473 48.4572 115.652 48.6332 114.948C48.8092 114.229 49.1612 113.591 49.6892 113.034C50.0559 112.653 50.5106 112.337 51.0532 112.088C51.5959 111.839 52.2486 111.714 53.0112 111.714C53.7739 111.714 54.4266 111.839 54.9692 112.088C55.5266 112.337 55.9886 112.653 56.3552 113.034C56.8832 113.591 57.2352 114.229 57.4112 114.948C57.5872 115.652 57.6752 116.473 57.6752 117.412ZM55.4312 117.412C55.4312 116.796 55.3872 116.217 55.2992 115.674C55.2112 115.131 54.9986 114.691 54.6612 114.354C54.2359 113.929 53.6859 113.716 53.0112 113.716C52.3512 113.716 51.8086 113.929 51.3832 114.354C51.0459 114.691 50.8332 115.131 50.7452 115.674C50.6572 116.217 50.6132 116.796 50.6132 117.412C50.6132 118.028 50.6572 118.607 50.7452 119.15C50.8332 119.693 51.0459 120.133 51.3832 120.47C51.8232 120.91 52.3659 121.13 53.0112 121.13C53.6712 121.13 54.2212 120.91 54.6612 120.47C54.9986 120.133 55.2112 119.693 55.2992 119.15C55.3872 118.607 55.4312 118.028 55.4312 117.412ZM74.3096 123V116.202C74.3096 115.337 74.0896 114.706 73.6496 114.31C73.2243 113.914 72.6963 113.716 72.0656 113.716C71.7576 113.716 71.4643 113.767 71.1856 113.87C70.907 113.958 70.6576 114.105 70.4376 114.31C70.2323 114.501 70.0636 114.75 69.9316 115.058C69.8143 115.351 69.7556 115.696 69.7556 116.092V123H67.5116V116.202C67.5116 115.337 67.2916 114.706 66.8516 114.31C66.4263 113.914 65.8983 113.716 65.2676 113.716C64.637 113.716 64.0943 113.921 63.6396 114.332C63.185 114.728 62.9576 115.351 62.9576 116.202V123H60.7136V111.846H62.9136V112.968C63.295 112.557 63.7423 112.249 64.2556 112.044C64.7836 111.824 65.3263 111.714 65.8836 111.714C67.2916 111.714 68.3476 112.257 69.0516 113.342C69.9463 112.257 71.1123 111.714 72.5496 111.714C73.1216 111.714 73.6496 111.802 74.1336 111.978C74.6176 112.154 75.0283 112.403 75.3656 112.726C75.791 113.151 76.0916 113.628 76.2676 114.156C76.4583 114.669 76.5536 115.241 76.5536 115.872V123H74.3096ZM81.6566 118.072C81.6566 119.04 81.8986 119.803 82.3826 120.36C82.8666 120.917 83.5706 121.196 84.4946 121.196C85.1253 121.196 85.6313 121.108 86.0126 120.932C86.4086 120.741 86.8046 120.448 87.2006 120.052L88.6306 121.394C88.3373 121.687 88.0439 121.944 87.7506 122.164C87.4719 122.369 87.1639 122.545 86.8266 122.692C86.5039 122.839 86.1446 122.949 85.7486 123.022C85.3673 123.095 84.9346 123.132 84.4506 123.132C83.7466 123.132 83.0866 123.037 82.4706 122.846C81.8693 122.641 81.3413 122.318 80.8866 121.878C80.4466 121.423 80.0946 120.829 79.8306 120.096C79.5666 119.363 79.4346 118.468 79.4346 117.412C79.4346 115.579 79.8599 114.171 80.7106 113.188C81.5759 112.205 82.7273 111.714 84.1646 111.714C84.9126 111.714 85.5799 111.846 86.1666 112.11C86.7533 112.359 87.2446 112.726 87.6406 113.21C88.0513 113.679 88.3593 114.251 88.5646 114.926C88.7846 115.586 88.8946 116.319 88.8946 117.126V118.072H81.6566ZM86.6726 116.51C86.6433 116.173 86.6139 115.901 86.5846 115.696C86.5553 115.476 86.4819 115.241 86.3646 114.992C86.1739 114.567 85.8879 114.229 85.5066 113.98C85.1399 113.716 84.6926 113.584 84.1646 113.584C83.6219 113.584 83.1599 113.716 82.7786 113.98C82.4119 114.229 82.1333 114.567 81.9426 114.992C81.8253 115.241 81.7519 115.476 81.7226 115.696C81.6933 115.901 81.6713 116.173 81.6566 116.51H86.6726ZM100.473 123C99.9451 123 99.4905 122.912 99.1091 122.736C98.7278 122.56 98.4125 122.333 98.1631 122.054C97.9138 121.761 97.7231 121.431 97.5911 121.064C97.4738 120.683 97.4151 120.294 97.4151 119.898V113.562H96.1391V111.846H97.4151V108.656H99.6591V111.846H101.815V113.562H99.6591V119.788C99.6591 120.199 99.7545 120.521 99.9451 120.756C100.15 120.976 100.466 121.086 100.891 121.086H101.815V123H100.473ZM113.341 117.412C113.341 118.365 113.253 119.201 113.077 119.92C112.901 120.624 112.549 121.255 112.021 121.812C111.655 122.193 111.193 122.509 110.635 122.758C110.093 123.007 109.44 123.132 108.677 123.132C107.915 123.132 107.262 123.007 106.719 122.758C106.177 122.509 105.722 122.193 105.355 121.812C104.827 121.255 104.475 120.624 104.299 119.92C104.123 119.201 104.035 118.365 104.035 117.412C104.035 116.473 104.123 115.652 104.299 114.948C104.475 114.229 104.827 113.591 105.355 113.034C105.722 112.653 106.177 112.337 106.719 112.088C107.262 111.839 107.915 111.714 108.677 111.714C109.44 111.714 110.093 111.839 110.635 112.088C111.193 112.337 111.655 112.653 112.021 113.034C112.549 113.591 112.901 114.229 113.077 114.948C113.253 115.652 113.341 116.473 113.341 117.412ZM111.097 117.412C111.097 116.796 111.053 116.217 110.965 115.674C110.877 115.131 110.665 114.691 110.327 114.354C109.902 113.929 109.352 113.716 108.677 113.716C108.017 113.716 107.475 113.929 107.049 114.354C106.712 114.691 106.499 115.131 106.411 115.674C106.323 116.217 106.279 116.796 106.279 117.412C106.279 118.028 106.323 118.607 106.411 119.15C106.499 119.693 106.712 120.133 107.049 120.47C107.489 120.91 108.032 121.13 108.677 121.13C109.337 121.13 109.887 120.91 110.327 120.47C110.665 120.133 110.877 119.693 110.965 119.15C111.053 118.607 111.097 118.028 111.097 117.412ZM124.987 123C124.459 123 124.004 122.912 123.623 122.736C123.241 122.56 122.926 122.333 122.677 122.054C122.427 121.761 122.237 121.431 122.105 121.064C121.987 120.683 121.929 120.294 121.929 119.898V113.562H120.653V111.846H121.929V108.656H124.173V111.846H126.329V113.562H124.173V119.788C124.173 120.199 124.268 120.521 124.459 120.756C124.664 120.976 124.979 121.086 125.405 121.086H126.329V123H124.987ZM135.982 123V116.202C135.982 115.337 135.762 114.706 135.322 114.31C134.897 113.914 134.369 113.716 133.738 113.716C133.108 113.716 132.565 113.921 132.11 114.332C131.656 114.728 131.428 115.351 131.428 116.202V123H129.184V107.336H131.428V112.968C131.81 112.543 132.25 112.227 132.748 112.022C133.247 111.817 133.782 111.714 134.354 111.714C134.926 111.714 135.44 111.802 135.894 111.978C136.364 112.154 136.767 112.403 137.104 112.726C137.53 113.151 137.823 113.628 137.984 114.156C138.146 114.669 138.226 115.241 138.226 115.872V123H135.982ZM143.338 118.072C143.338 119.04 143.58 119.803 144.064 120.36C144.548 120.917 145.252 121.196 146.176 121.196C146.807 121.196 147.313 121.108 147.694 120.932C148.09 120.741 148.486 120.448 148.882 120.052L150.312 121.394C150.019 121.687 149.726 121.944 149.432 122.164C149.154 122.369 148.846 122.545 148.508 122.692C148.186 122.839 147.826 122.949 147.43 123.022C147.049 123.095 146.616 123.132 146.132 123.132C145.428 123.132 144.768 123.037 144.152 122.846C143.551 122.641 143.023 122.318 142.568 121.878C142.128 121.423 141.776 120.829 141.512 120.096C141.248 119.363 141.116 118.468 141.116 117.412C141.116 115.579 141.542 114.171 142.392 113.188C143.258 112.205 144.409 111.714 145.846 111.714C146.594 111.714 147.262 111.846 147.848 112.11C148.435 112.359 148.926 112.726 149.322 113.21C149.733 113.679 150.041 114.251 150.246 114.926C150.466 115.586 150.576 116.319 150.576 117.126V118.072H143.338ZM148.354 116.51C148.325 116.173 148.296 115.901 148.266 115.696C148.237 115.476 148.164 115.241 148.046 114.992C147.856 114.567 147.57 114.229 147.188 113.98C146.822 113.716 146.374 113.584 145.846 113.584C145.304 113.584 144.842 113.716 144.46 113.98C144.094 114.229 143.815 114.567 143.624 114.992C143.507 115.241 143.434 115.476 143.404 115.696C143.375 115.901 143.353 116.173 143.338 116.51H148.354ZM170.053 112.088C170.053 112.777 169.935 113.408 169.701 113.98C169.466 114.552 169.129 115.051 168.689 115.476C168.249 115.901 167.721 116.231 167.105 116.466C166.489 116.701 165.799 116.818 165.037 116.818H161.473V123H159.097V107.336H165.037C165.799 107.336 166.489 107.461 167.105 107.71C167.721 107.945 168.249 108.275 168.689 108.7C169.129 109.111 169.466 109.609 169.701 110.196C169.935 110.783 170.053 111.413 170.053 112.088ZM167.677 112.088C167.677 111.252 167.42 110.607 166.907 110.152C166.408 109.697 165.741 109.47 164.905 109.47H161.473V114.706H164.905C165.741 114.706 166.408 114.479 166.907 114.024C167.42 113.569 167.677 112.924 167.677 112.088ZM179.401 123V121.878C179.019 122.303 178.565 122.619 178.037 122.824C177.523 123.029 176.988 123.132 176.431 123.132C175.859 123.132 175.338 123.044 174.869 122.868C174.414 122.692 174.018 122.443 173.681 122.12C173.255 121.695 172.962 121.225 172.801 120.712C172.639 120.184 172.559 119.605 172.559 118.974V111.846H174.803V118.644C174.803 119.509 175.015 120.14 175.441 120.536C175.881 120.932 176.416 121.13 177.047 121.13C177.355 121.13 177.648 121.086 177.927 120.998C178.22 120.895 178.469 120.741 178.675 120.536C178.88 120.331 179.041 120.074 179.159 119.766C179.291 119.443 179.357 119.069 179.357 118.644V111.846H181.601V123H179.401ZM191.311 114.464C191.061 114.215 190.812 114.031 190.563 113.914C190.328 113.782 190.02 113.716 189.639 113.716C189.023 113.716 188.495 113.943 188.055 114.398C187.629 114.838 187.417 115.447 187.417 116.224V123H185.173V111.846H187.373V113.056C187.666 112.66 188.077 112.337 188.605 112.088C189.133 111.839 189.712 111.714 190.343 111.714C190.885 111.714 191.369 111.795 191.795 111.956C192.22 112.117 192.623 112.389 193.005 112.77L191.311 114.464ZM195.825 118.072C195.825 119.04 196.067 119.803 196.551 120.36C197.035 120.917 197.739 121.196 198.663 121.196C199.293 121.196 199.799 121.108 200.181 120.932C200.577 120.741 200.973 120.448 201.369 120.052L202.799 121.394C202.505 121.687 202.212 121.944 201.919 122.164C201.64 122.369 201.332 122.545 200.995 122.692C200.672 122.839 200.313 122.949 199.917 123.022C199.535 123.095 199.103 123.132 198.619 123.132C197.915 123.132 197.255 123.037 196.639 122.846C196.037 122.641 195.509 122.318 195.055 121.878C194.615 121.423 194.263 120.829 193.999 120.096C193.735 119.363 193.603 118.468 193.603 117.412C193.603 115.579 194.028 114.171 194.879 113.188C195.744 112.205 196.895 111.714 198.333 111.714C199.081 111.714 199.748 111.846 200.335 112.11C200.921 112.359 201.413 112.726 201.809 113.21C202.219 113.679 202.527 114.251 202.733 114.926C202.953 115.586 203.063 116.319 203.063 117.126V118.072H195.825ZM200.841 116.51C200.811 116.173 200.782 115.901 200.753 115.696C200.723 115.476 200.65 115.241 200.533 114.992C200.342 114.567 200.056 114.229 199.675 113.98C199.308 113.716 198.861 113.584 198.333 113.584C197.79 113.584 197.328 113.716 196.947 113.98C196.58 114.229 196.301 114.567 196.111 114.992C195.993 115.241 195.92 115.476 195.891 115.696C195.861 115.901 195.839 116.173 195.825 116.51H200.841ZM212.832 123V116.202C212.832 115.337 212.612 114.706 212.172 114.31C211.747 113.914 211.219 113.716 210.588 113.716C209.957 113.716 209.415 113.921 208.96 114.332C208.505 114.728 208.278 115.351 208.278 116.202V123H206.034V107.336H208.278V112.968C208.659 112.543 209.099 112.227 209.598 112.022C210.097 111.817 210.632 111.714 211.204 111.714C211.776 111.714 212.289 111.802 212.744 111.978C213.213 112.154 213.617 112.403 213.954 112.726C214.379 113.151 214.673 113.628 214.834 114.156C214.995 114.669 215.076 115.241 215.076 115.872V123H212.832ZM220.188 118.072C220.188 119.04 220.43 119.803 220.914 120.36C221.398 120.917 222.102 121.196 223.026 121.196C223.657 121.196 224.163 121.108 224.544 120.932C224.94 120.741 225.336 120.448 225.732 120.052L227.162 121.394C226.869 121.687 226.575 121.944 226.282 122.164C226.003 122.369 225.695 122.545 225.358 122.692C225.035 122.839 224.676 122.949 224.28 123.022C223.899 123.095 223.466 123.132 222.982 123.132C222.278 123.132 221.618 123.037 221.002 122.846C220.401 122.641 219.873 122.318 219.418 121.878C218.978 121.423 218.626 120.829 218.362 120.096C218.098 119.363 217.966 118.468 217.966 117.412C217.966 115.579 218.391 114.171 219.242 113.188C220.107 112.205 221.259 111.714 222.696 111.714C223.444 111.714 224.111 111.846 224.698 112.11C225.285 112.359 225.776 112.726 226.172 113.21C226.583 113.679 226.891 114.251 227.096 114.926C227.316 115.586 227.426 116.319 227.426 117.126V118.072H220.188ZM225.204 116.51C225.175 116.173 225.145 115.901 225.116 115.696C225.087 115.476 225.013 115.241 224.896 114.992C224.705 114.567 224.419 114.229 224.038 113.98C223.671 113.716 223.224 113.584 222.696 113.584C222.153 113.584 221.691 113.716 221.31 113.98C220.943 114.229 220.665 114.567 220.474 114.992C220.357 115.241 220.283 115.476 220.254 115.696C220.225 115.901 220.203 116.173 220.188 116.51H225.204ZM236.403 123V121.988C235.993 122.399 235.567 122.692 235.127 122.868C234.687 123.044 234.123 123.132 233.433 123.132C232.729 123.132 232.135 123.051 231.651 122.89C231.182 122.714 230.779 122.457 230.441 122.12C229.855 121.504 229.561 120.705 229.561 119.722C229.561 118.783 229.884 118.013 230.529 117.412C231.175 116.811 232.143 116.51 233.433 116.51H236.359V115.718C236.359 114.999 236.169 114.471 235.787 114.134C235.421 113.797 234.797 113.628 233.917 113.628C233.316 113.628 232.839 113.716 232.487 113.892C232.135 114.053 231.798 114.332 231.475 114.728L230.023 113.342C230.287 113.034 230.551 112.777 230.815 112.572C231.094 112.367 231.387 112.198 231.695 112.066C232.018 111.934 232.363 111.846 232.729 111.802C233.111 111.743 233.536 111.714 234.005 111.714C235.56 111.714 236.711 112.037 237.459 112.682C238.222 113.327 238.603 114.281 238.603 115.542V123H236.403ZM236.359 118.072H233.785C232.421 118.072 231.739 118.607 231.739 119.678C231.739 120.191 231.901 120.587 232.223 120.866C232.561 121.13 233.103 121.262 233.851 121.262C234.247 121.262 234.607 121.225 234.929 121.152C235.267 121.079 235.582 120.903 235.875 120.624C236.198 120.316 236.359 119.766 236.359 118.974V118.072ZM245.055 123C244.527 123 244.065 122.919 243.669 122.758C243.288 122.582 242.973 122.355 242.723 122.076C242.474 121.797 242.291 121.475 242.173 121.108C242.056 120.727 241.997 120.331 241.997 119.92V107.336H244.241V119.788C244.241 120.213 244.329 120.536 244.505 120.756C244.681 120.976 244.997 121.086 245.451 121.086H246.441V123H245.055ZM252.217 123C251.689 123 251.235 122.912 250.853 122.736C250.472 122.56 250.157 122.333 249.907 122.054C249.658 121.761 249.467 121.431 249.335 121.064C249.218 120.683 249.159 120.294 249.159 119.898V113.562H247.883V111.846H249.159V108.656H251.403V111.846H253.559V113.562H251.403V119.788C251.403 120.199 251.499 120.521 251.689 120.756C251.895 120.976 252.21 121.086 252.635 121.086H253.559V123H252.217ZM263.213 123V116.202C263.213 115.337 262.993 114.706 262.553 114.31C262.127 113.914 261.599 113.716 260.969 113.716C260.338 113.716 259.795 113.921 259.341 114.332C258.886 114.728 258.659 115.351 258.659 116.202V123H256.415V107.336H258.659V112.968C259.04 112.543 259.48 112.227 259.979 112.022C260.477 111.817 261.013 111.714 261.585 111.714C262.157 111.714 262.67 111.802 263.125 111.978C263.594 112.154 263.997 112.403 264.335 112.726C264.76 113.151 265.053 113.628 265.215 114.156C265.376 114.669 265.457 115.241 265.457 115.872V123H263.213ZM274.468 123V107.336H276.844V120.866H284.39V123H274.468ZM288.487 118.072C288.487 119.04 288.729 119.803 289.213 120.36C289.697 120.917 290.401 121.196 291.325 121.196C291.955 121.196 292.461 121.108 292.843 120.932C293.239 120.741 293.635 120.448 294.031 120.052L295.461 121.394C295.167 121.687 294.874 121.944 294.581 122.164C294.302 122.369 293.994 122.545 293.657 122.692C293.334 122.839 292.975 122.949 292.579 123.022C292.197 123.095 291.765 123.132 291.281 123.132C290.577 123.132 289.917 123.037 289.301 122.846C288.699 122.641 288.171 122.318 287.717 121.878C287.277 121.423 286.925 120.829 286.661 120.096C286.397 119.363 286.265 118.468 286.265 117.412C286.265 115.579 286.69 114.171 287.541 113.188C288.406 112.205 289.557 111.714 290.995 111.714C291.743 111.714 292.41 111.846 292.997 112.11C293.583 112.359 294.075 112.726 294.471 113.21C294.881 113.679 295.189 114.251 295.395 114.926C295.615 115.586 295.725 116.319 295.725 117.126V118.072H288.487ZM293.503 116.51C293.473 116.173 293.444 115.901 293.415 115.696C293.385 115.476 293.312 115.241 293.195 114.992C293.004 114.567 292.718 114.229 292.337 113.98C291.97 113.716 291.523 113.584 290.995 113.584C290.452 113.584 289.99 113.716 289.609 113.98C289.242 114.229 288.963 114.567 288.773 114.992C288.655 115.241 288.582 115.476 288.553 115.696C288.523 115.901 288.501 116.173 288.487 116.51H293.503ZM304.702 123V121.988C304.291 122.399 303.866 122.692 303.426 122.868C302.986 123.044 302.421 123.132 301.732 123.132C301.028 123.132 300.434 123.051 299.95 122.89C299.481 122.714 299.077 122.457 298.74 122.12C298.153 121.504 297.86 120.705 297.86 119.722C297.86 118.783 298.183 118.013 298.828 117.412C299.473 116.811 300.441 116.51 301.732 116.51H304.658V115.718C304.658 114.999 304.467 114.471 304.086 114.134C303.719 113.797 303.096 113.628 302.216 113.628C301.615 113.628 301.138 113.716 300.786 113.892C300.434 114.053 300.097 114.332 299.774 114.728L298.322 113.342C298.586 113.034 298.85 112.777 299.114 112.572C299.393 112.367 299.686 112.198 299.994 112.066C300.317 111.934 300.661 111.846 301.028 111.802C301.409 111.743 301.835 111.714 302.304 111.714C303.859 111.714 305.01 112.037 305.758 112.682C306.521 113.327 306.902 114.281 306.902 115.542V123H304.702ZM304.658 118.072H302.084C300.72 118.072 300.038 118.607 300.038 119.678C300.038 120.191 300.199 120.587 300.522 120.866C300.859 121.13 301.402 121.262 302.15 121.262C302.546 121.262 302.905 121.225 303.228 121.152C303.565 121.079 303.881 120.903 304.174 120.624C304.497 120.316 304.658 119.766 304.658 118.974V118.072ZM317.16 123V116.202C317.16 115.337 316.94 114.706 316.5 114.31C316.075 113.914 315.547 113.716 314.916 113.716C314.285 113.716 313.743 113.921 313.288 114.332C312.833 114.728 312.606 115.351 312.606 116.202V123H310.362V111.846H312.562V112.968C312.943 112.543 313.391 112.227 313.904 112.022C314.432 111.817 314.975 111.714 315.532 111.714C316.104 111.714 316.617 111.802 317.072 111.978C317.541 112.154 317.945 112.403 318.282 112.726C318.707 113.151 319.001 113.628 319.162 114.156C319.323 114.669 319.404 115.241 319.404 115.872V123H317.16ZM322.866 123V111.846H325.11V123H322.866ZM322.8 109.646V107.27H325.176V109.646H322.8ZM335.465 123V116.202C335.465 115.337 335.245 114.706 334.805 114.31C334.379 113.914 333.851 113.716 333.221 113.716C332.59 113.716 332.047 113.921 331.593 114.332C331.138 114.728 330.911 115.351 330.911 116.202V123H328.667V111.846H330.867V112.968C331.248 112.543 331.695 112.227 332.209 112.022C332.737 111.817 333.279 111.714 333.837 111.714C334.409 111.714 334.922 111.802 335.377 111.978C335.846 112.154 336.249 112.403 336.587 112.726C337.012 113.151 337.305 113.628 337.467 114.156C337.628 114.669 337.709 115.241 337.709 115.872V123H335.465ZM349.685 122.934C349.685 123.623 349.575 124.254 349.355 124.826C349.135 125.398 348.819 125.889 348.409 126.3C347.998 126.725 347.499 127.055 346.913 127.29C346.326 127.525 345.659 127.642 344.911 127.642C344.06 127.642 343.334 127.532 342.733 127.312C342.146 127.092 341.559 126.711 340.973 126.168L342.403 124.738C342.755 125.075 343.107 125.325 343.459 125.486C343.811 125.647 344.265 125.728 344.823 125.728C345.292 125.728 345.688 125.647 346.011 125.486C346.348 125.339 346.619 125.134 346.825 124.87C347.045 124.606 347.199 124.305 347.287 123.968C347.389 123.631 347.441 123.271 347.441 122.89V121.46C347.03 121.944 346.59 122.281 346.121 122.472C345.651 122.648 345.131 122.736 344.559 122.736C344.001 122.736 343.495 122.648 343.041 122.472C342.586 122.296 342.205 122.054 341.897 121.746C341.354 121.203 341.009 120.551 340.863 119.788C340.716 119.025 340.643 118.167 340.643 117.214C340.643 116.261 340.716 115.403 340.863 114.64C341.009 113.877 341.354 113.225 341.897 112.682C342.542 112.037 343.437 111.714 344.581 111.714C345.182 111.714 345.71 111.809 346.165 112C346.634 112.176 347.081 112.521 347.507 113.034V111.846H349.685V122.934ZM347.441 117.214C347.441 116.774 347.419 116.349 347.375 115.938C347.331 115.513 347.228 115.139 347.067 114.816C346.905 114.479 346.671 114.215 346.363 114.024C346.069 113.819 345.673 113.716 345.175 113.716C344.661 113.716 344.251 113.819 343.943 114.024C343.649 114.215 343.422 114.479 343.261 114.816C343.114 115.139 343.011 115.513 342.953 115.938C342.909 116.349 342.887 116.774 342.887 117.214C342.887 117.654 342.909 118.087 342.953 118.512C343.011 118.923 343.114 119.297 343.261 119.634C343.422 119.957 343.649 120.221 343.943 120.426C344.251 120.617 344.661 120.712 345.175 120.712C345.673 120.712 346.069 120.617 346.363 120.426C346.671 120.221 346.905 119.957 347.067 119.634C347.228 119.297 347.331 118.923 347.375 118.512C347.419 118.087 347.441 117.654 347.441 117.214ZM365.328 123V116.202C365.328 115.337 365.108 114.706 364.668 114.31C364.243 113.914 363.715 113.716 363.084 113.716C362.453 113.716 361.911 113.921 361.456 114.332C361.001 114.728 360.774 115.351 360.774 116.202V123H358.53V107.336H360.774V112.968C361.155 112.543 361.595 112.227 362.094 112.022C362.593 111.817 363.128 111.714 363.7 111.714C364.272 111.714 364.785 111.802 365.24 111.978C365.709 112.154 366.113 112.403 366.45 112.726C366.875 113.151 367.169 113.628 367.33 114.156C367.491 114.669 367.572 115.241 367.572 115.872V123H365.328ZM377.766 123V121.878C377.385 122.303 376.93 122.619 376.402 122.824C375.889 123.029 375.353 123.132 374.796 123.132C374.224 123.132 373.703 123.044 373.234 122.868C372.779 122.692 372.383 122.443 372.046 122.12C371.621 121.695 371.327 121.225 371.166 120.712C371.005 120.184 370.924 119.605 370.924 118.974V111.846H373.168V118.644C373.168 119.509 373.381 120.14 373.806 120.536C374.246 120.932 374.781 121.13 375.412 121.13C375.72 121.13 376.013 121.086 376.292 120.998C376.585 120.895 376.835 120.741 377.04 120.536C377.245 120.331 377.407 120.074 377.524 119.766C377.656 119.443 377.722 119.069 377.722 118.644V111.846H379.966V123H377.766ZM392.668 117.412C392.668 118.336 392.595 119.216 392.448 120.052C392.301 120.888 391.957 121.585 391.414 122.142C391.106 122.45 390.71 122.692 390.226 122.868C389.757 123.044 389.243 123.132 388.686 123.132C388.085 123.132 387.549 123.044 387.08 122.868C386.611 122.677 386.163 122.325 385.738 121.812V123H383.538V107.336H385.782V112.968C386.193 112.484 386.633 112.154 387.102 111.978C387.571 111.802 388.107 111.714 388.708 111.714C389.265 111.714 389.779 111.802 390.248 111.978C390.717 112.154 391.106 112.396 391.414 112.704C391.678 112.983 391.891 113.298 392.052 113.65C392.228 114.002 392.36 114.383 392.448 114.794C392.536 115.19 392.595 115.615 392.624 116.07C392.653 116.51 392.668 116.957 392.668 117.412ZM390.424 117.412C390.424 116.913 390.395 116.444 390.336 116.004C390.292 115.549 390.189 115.153 390.028 114.816C389.867 114.479 389.632 114.215 389.324 114.024C389.016 113.819 388.613 113.716 388.114 113.716C387.601 113.716 387.19 113.819 386.882 114.024C386.574 114.215 386.339 114.479 386.178 114.816C386.017 115.153 385.907 115.549 385.848 116.004C385.804 116.444 385.782 116.913 385.782 117.412C385.782 117.911 385.804 118.387 385.848 118.842C385.907 119.282 386.017 119.678 386.178 120.03C386.339 120.367 386.574 120.639 386.882 120.844C387.19 121.035 387.601 121.13 388.114 121.13C388.613 121.13 389.016 121.035 389.324 120.844C389.632 120.639 389.867 120.367 390.028 120.03C390.189 119.678 390.292 119.282 390.336 118.842C390.395 118.387 390.424 117.911 390.424 117.412Z" fill="white"/>
</svg>
