<svg width="400" height="19" viewBox="0 0 400 19" fill="none" xmlns="http://www.w3.org/2000/svg">
<path d="M200.11 10.9743C200.11 11.5436 200.101 12.0336 200.082 12.4443C200.064 12.8549 200.022 13.2143 199.956 13.5223C199.891 13.8303 199.788 14.1056 199.648 14.3483C199.518 14.5909 199.336 14.8289 199.102 15.0623C198.794 15.3703 198.435 15.6129 198.024 15.7903C197.614 15.9583 197.147 16.0423 196.624 16.0423C196.102 16.0423 195.63 15.9583 195.21 15.7903C194.8 15.6129 194.44 15.3703 194.132 15.0623C193.899 14.8289 193.712 14.5909 193.572 14.3483C193.442 14.1056 193.344 13.8303 193.278 13.5223C193.213 13.2143 193.171 12.8549 193.152 12.4443C193.143 12.0336 193.138 11.5436 193.138 10.9743C193.138 10.4049 193.143 9.91492 193.152 9.50425C193.171 9.09359 193.213 8.73425 193.278 8.42625C193.344 8.11825 193.442 7.84292 193.572 7.60025C193.712 7.35759 193.899 7.11959 194.132 6.88625C194.44 6.57825 194.8 6.34025 195.21 6.17225C195.63 5.99492 196.102 5.90625 196.624 5.90625C197.147 5.90625 197.614 5.99492 198.024 6.17225C198.435 6.34025 198.794 6.57825 199.102 6.88625C199.336 7.11959 199.518 7.35759 199.648 7.60025C199.788 7.84292 199.891 8.11825 199.956 8.42625C200.022 8.73425 200.064 9.09359 200.082 9.50425C200.101 9.91492 200.11 10.4049 200.11 10.9743ZM199.046 10.9743C199.046 10.4609 199.037 10.0269 199.018 9.67225C199.009 9.30825 198.981 9.00025 198.934 8.74825C198.888 8.48692 198.818 8.26292 198.724 8.07625C198.631 7.88959 198.505 7.71692 198.346 7.55825C197.88 7.09158 197.306 6.85825 196.624 6.85825C195.943 6.85825 195.369 7.09158 194.902 7.55825C194.744 7.71692 194.618 7.88959 194.524 8.07625C194.431 8.26292 194.361 8.48692 194.314 8.74825C194.268 9.00025 194.235 9.30825 194.216 9.67225C194.207 10.0269 194.202 10.4609 194.202 10.9743C194.202 11.4876 194.207 11.9263 194.216 12.2903C194.235 12.6449 194.268 12.9529 194.314 13.2143C194.361 13.4663 194.431 13.6856 194.524 13.8723C194.618 14.0589 194.744 14.2316 194.902 14.3903C195.369 14.8569 195.943 15.0903 196.624 15.0903C197.306 15.0903 197.88 14.8569 198.346 14.3903C198.505 14.2316 198.631 14.0589 198.724 13.8723C198.818 13.6856 198.888 13.4663 198.934 13.2143C198.981 12.9529 199.009 12.6449 199.018 12.2903C199.037 11.9263 199.046 11.4876 199.046 10.9743ZM206.29 10.3863C206.103 10.1996 205.926 10.0689 205.758 9.99425C205.59 9.91959 205.37 9.88225 205.1 9.88225C204.848 9.88225 204.619 9.92892 204.414 10.0223C204.208 10.1156 204.036 10.2463 203.896 10.4143C203.756 10.5823 203.644 10.7783 203.56 11.0023C203.485 11.2263 203.448 11.4689 203.448 11.7303V15.9583H202.44V9.07025H203.448V9.91025C203.634 9.62092 203.9 9.39692 204.246 9.23825C204.6 9.07025 204.978 8.98625 205.38 8.98625C205.706 8.98625 206 9.03292 206.262 9.12625C206.532 9.21958 206.789 9.38759 207.032 9.63025L206.29 10.3863Z" fill="white"/>
<rect y="9.45825" width="180" height="1" fill="#A3A9B2"/>
<rect x="219.574" y="9.45825" width="180" height="1" fill="#A3A9B2"/>
</svg>
